<svg xmlns="http://www.w3.org/2000/svg" height="32" viewBox="-3 -3 38 38" width="32"><g id="deeditor_bgCarrier" stroke-width="0">
    <rect id="dee_c_e" x="-3" y="-3" width="38" height="38" rx="0" fill="#2e302f" strokewidth="0"/>
  </g><path d="m4 20v2h4.586l-6.586 6.586 1.414 1.414 6.586-6.586v4.586h2v-8z" fill="#900505"/><path d="m22 16h2v-6h5v-2h-5v-4h6v-2h-8z" fill="#900505"/><path d="m16 2h-4v14h4a4 4 0 0 0 4-4v-6a4 4 0 0 0 -4-4zm2 10a2 2 0 0 1 -2 2h-2v-10h2a2 2 0 0 1 2 2z" fill="#900505"/><path d="m8 2h-6v14h2v-5h4a2 2 0 0 0 2-2v-5a2 2 0 0 0 -2-2zm0 7h-4v-5h4z" fill="#900505"/><path d="m0 0h32v32h-32z" fill="none"/></svg>